#N canvas 435 250 753 581 10;
#X obj 113 117 gemhead;
#X obj 247 54 gemwin;
#X msg 247 22 dimen 640 480 \, create \, 1;
#X msg 411 22 destroy;
#X text -28 19 (C)2011 Matthias Kronlachner;
#N canvas 453 76 827 305 properties 1;
#X obj 95 235 outlet;
#X obj 3 -6 cnv 15 140 220 empty empty empty 20 12 0 14 -204800 -66577
0;
#X msg 8 178 led \$1;
#X obj 8 59 vradio 15 1 0 6 empty empty empty 0 -8 0 10 -262144 -1
-1 0;
#X floatatom 8 155 5 0 0 0 - - -;
#X msg 85 178 angle \$1;
#X obj 85 23 vsl 15 128 -30 30 0 0 empty empty empty 0 -9 0 10 -262144
-1 -1 6350 1;
#X floatatom 85 159 5 0 0 0 - - -;
#X msg 85 -2 0;
#X text 24 73 GREEN;
#X text 25 57 OFF;
#X text 24 89 RED;
#X text 24 104 YELLOW;
#X text 24 119 BLINK_GR;
#X text 24 133 BLINK_R_Y;
#N canvas 250 87 894 267 video_modes 0;
#X msg 538 182 video_mode \$1;
#X obj 538 51 vradio 15 1 0 7 empty empty empty 0 -8 0 10 -262144 -1
-1 0;
#X floatatom 538 161 5 0 0 0 - - -;
#X msg 150 178 depth_mode \$1;
#X obj 150 50 vradio 15 1 0 6 empty empty empty 0 -8 0 10 -262144 -1
-1 4;
#X floatatom 150 160 5 0 0 0 - - -;
#X text 8 2 LIBFREENECT MODES:;
#X text 559 80 IR MODE;
#X text 559 51 RGB (use this);
#X obj 150 213 outlet;
#X text 125 2 this is just for experimenting...;
#X text 424 50 FREENECT_VIDEO_RGB;
#X text 412 65 FREENECT_VIDEO_BAYER;
#X text 394 79 FREENECT_VIDEO_IR_10BIT;
#X text 354 94 FREENECT_VIDEO_IR_10BIT_PACKED;
#X text 401 111 FREENECT_VIDEO_YUV_RGB;
#X text 401 125 FREENECT_VIDEO_YUV_RAW;
#X text 413 140 FREENECT_VIDEO_DUMMY;
#X text 24 48 FREENECT_DEPTH_11BIT;
#X text 24 63 FREENECT_DEPTH_10BIT;
#X text -19 78 FREENECT_DEPTH_11BIT_PACKED;
#X text -19 94 FREENECT_DEPTH_10BIT_PACKED;
#X text 42 123 FREENECT_DEPTH_MM;
#X text 67 27 DEPTH MODES;
#X text 520 26 RGB MODES;
#X text 149 27 !!also check depth_output!!;
#X obj 658 114 vradio 15 1 0 3 empty empty empty 0 -8 0 10 -262144
-1 -1 0;
#X floatatom 658 164 5 0 0 0 - - -;
#X msg 658 185 resolution \$1;
#X text 678 128 MEDIUM (default);
#X text 655 91 RGB RESOLUTION;
#X text 678 143 HIGH (restart rgb stream!);
#X text -6 109 FREENECT_DEPTH_REGISTERED;
#X text 678 113 LOW (not displaying correctly);
#X text 170 47 standard \, raw depth;
#X text 172 108 aligned to rgb \, output [mm];
#X text 171 122 unaligned \, output [mm];
#X connect 0 0 9 0;
#X connect 1 0 2 0;
#X connect 2 0 0 0;
#X connect 3 0 9 0;
#X connect 4 0 5 0;
#X connect 5 0 3 0;
#X connect 26 0 27 0;
#X connect 27 0 28 0;
#X connect 28 0 9 0;
#X restore 323 220 pd video_modes;
#X obj 149 84 cnv 15 320 120 empty empty empty 20 12 0 14 -4034 -66577
0;
#X obj 160 121 vradio 15 1 0 2 empty empty empty 0 -8 0 10 -262144
-1 -1 0;
#X floatatom 160 156 5 0 0 0 - - -;
#X obj 225 122 vradio 15 1 0 2 empty empty empty 0 -8 0 10 -262144
-1 -1 0;
#X floatatom 225 157 5 0 0 0 - - -;
#X msg 287 179 audio \$1;
#X obj 287 123 vradio 15 1 0 2 empty empty empty 0 -8 0 10 -262144
-1 -1 0;
#X floatatom 287 158 5 0 0 0 - - -;
#X msg 160 177 rgb \$1;
#X msg 225 178 depth \$1;
#X text 152 84 activate/deactivate streams;
#X text 306 120 OFF;
#X text 306 134 ON;
#X text 154 98 save cpu power by just activating necessary streams!
;
#X obj 477 85 cnv 15 315 120 empty empty empty 20 12 0 14 -232576 -66577
0;
#X obj 480 108 vradio 15 1 0 3 empty empty empty 0 -8 0 10 -262144
-1 -1 0;
#X floatatom 480 160 5 0 0 0 - - -;
#X msg 480 179 depth_output \$1;
#X text 500 106 Color -> best for visual representation;
#X text 501 122 Gray -> easy to handle;
#X text 502 137 Raw -> 11 bit output;
#X text 630 151 b = 0 \, a = 0;
#X text 631 169 ->for distance_measurement;
#X text 303 -23 properties for pix_freenect;
#X text 498 62 DEPTH OUTPUT;
#X text 171 63 STREAMS;
#X text 26 -25 LED \, ANGLE;
#X text 419 220 <- change between aligned depth output and so on...
;
#X text 628 137 r->3 msbits \, g ->8 lsbits;
#X connect 2 0 0 0;
#X connect 3 0 4 0;
#X connect 4 0 2 0;
#X connect 5 0 0 0;
#X connect 6 0 7 0;
#X connect 7 0 5 0;
#X connect 8 0 6 0;
#X connect 15 0 0 0;
#X connect 17 0 18 0;
#X connect 18 0 24 0;
#X connect 19 0 20 0;
#X connect 20 0 25 0;
#X connect 21 0 0 0;
#X connect 22 0 23 0;
#X connect 23 0 21 0;
#X connect 24 0 0 0;
#X connect 25 0 0 0;
#X connect 31 0 32 0;
#X connect 32 0 33 0;
#X connect 33 0 0 0;
#X restore 21 105 pd properties;
#X text -3 49 depends on libfreenect;
#X obj 30 264 pix_texture;
#X obj 30 315 rectangle 2 1.5;
#X obj 171 231 pix_texture;
#X obj 171 282 rectangle 2 1.5;
#X obj 230 105 gemhead;
#X obj 123 478 pix_texture;
#X obj 123 424 gemhead;
#X obj 123 549 rectangle 2 1.5;
#X obj 252 425 gemhead;
#X obj 263 478 pix_texture;
#X obj 251 549 rectangle 2 1.5;
#X obj 263 509 translateXYZ 2.5 -2 0;
#N canvas 667 445 450 300 pix_info 0;
#X obj 173 67 inlet;
#X obj 173 89 pix_info ______;
#X floatatom 234 140 5 0 0 0 - - -;
#X floatatom 122 137 5 0 0 0 - - -;
#X floatatom 159 137 5 0 0 0 - - -;
#X floatatom 197 139 5 0 0 0 - - -;
#X floatatom 269 140 5 0 0 0 - - -;
#X floatatom 303 140 5 0 0 0 - - -;
#X obj 58 138 outlet;
#X text 180 42 depth;
#X connect 0 0 1 0;
#X connect 1 0 8 0;
#X connect 1 1 3 0;
#X connect 1 2 4 0;
#X connect 1 3 5 0;
#X connect 1 4 2 0;
#X connect 1 5 6 0;
#X connect 1 6 7 0;
#X restore 171 308 pd pix_info;
#N canvas 171 452 450 300 pix_info 0;
#X obj 173 67 inlet;
#X obj 173 89 pix_info ______;
#X floatatom 234 140 5 0 0 0 - - -;
#X floatatom 122 137 5 0 0 0 - - -;
#X floatatom 159 137 5 0 0 0 - - -;
#X floatatom 197 139 5 0 0 0 - - -;
#X floatatom 269 140 5 0 0 0 - - -;
#X floatatom 303 140 5 0 0 0 - - -;
#X text 185 34 rgb;
#X connect 0 0 1 0;
#X connect 1 1 3 0;
#X connect 1 2 4 0;
#X connect 1 3 5 0;
#X connect 1 4 2 0;
#X connect 1 5 6 0;
#X connect 1 6 7 0;
#X restore 30 343 pd pix_info;
#X text 347 110 2nd argument: activate RGB stream;
#X text 347 127 3rd argument: activate DEPTH stream;
#X text 348 143 4th argument: activate AUDIO stream;
#X text 455 158 0 -> off \, 1 -> on;
#X text 313 424 Test with second Kinect;
#X text 356 182 1st output: gemstate rgb video;
#X text 356 197 2nd output: gemstate depth video;
#X text 356 212 3-6. output audio samples as list;
#X text 377 228 3: leftmost mic;
#X text 384 239 6 rigthmost mic;
#X text 359 263 7th output: info outlet;
#X text -51 151 output acceleration;
#X msg -52 132 accel;
#X obj -52 84 tgl 15 0 empty empty accel 17 7 0 10 -262144 -1 -1 0
1;
#X obj -52 106 metro 500;
#N canvas 299 280 857 435 distance_measurement 0;
#X obj 112 42 inlet;
#X obj 22 89 pix_data;
#X floatatom 161 53 5 0 0 0 - - -;
#X floatatom 198 53 5 0 0 0 - - -;
#X obj 44 140 unpack 0 0 0;
#X floatatom 46 162 5 0 0 0 - - -;
#X floatatom 85 162 5 0 0 0 - - -;
#X floatatom 125 162 5 0 0 0 - - -;
#X msg 161 28 0.5;
#X obj 78 201 * 256;
#X obj 8 201 * 65536;
#X obj 8 231 +;
#X text 35 228 rawdisparity 16 bit;
#X obj 8 268 expr 100/(-0.0030711016*$f1+3.3309495161);
#X obj 22 47 metro 100;
#X obj 22 24 tgl 15 0 empty empty empty 17 7 0 10 -262144 -1 -1 0 1
;
#X obj 8 296 / 100;
#X obj 8 350 nbx 5 60 -1e+37 1e+37 0 0 empty empty m 300 22 0 60 -262144
-1 -1 0 256;
#X text 89 87 output pixel rgb value;
#X text 126 139 r g b;
#X text 117 200 second and first 8 bits;
#X text 396 26 -> see properties;
#X text 269 284 (mailinglist libfreenect);
#X text 91 322 display distance in meters;
#X text 240 52 x \, y pixel position in range 0 - 1;
#X text 267 268 distance in cm - empiric formula;
#X text 339 64 (from depth image);
#X text 40 23 ON/OFF;
#X obj 487 259 nbx 5 60 -1e+37 1e+37 0 0 empty empty m 300 22 0 60
-262144 -1 -1 0 256;
#X obj 487 205 / 1000;
#X obj 161 6 loadbang;
#X text 230 9 for distance measurement use !!!raw depth output!!!;
#X text 552 195 if depth_mode is FREENECT_DEPTH_REGISTERED (4);
#X text 552 211 or FREENECT_DEPTH_MM (5);
#X text 552 226 16 bit output is in [mm];
#X text 71 287 better use depth_mode 4 or 5!!;
#X connect 0 0 1 1;
#X connect 1 1 4 0;
#X connect 2 0 1 2;
#X connect 3 0 1 3;
#X connect 4 0 5 0;
#X connect 4 0 10 0;
#X connect 4 1 6 0;
#X connect 4 1 9 0;
#X connect 4 2 7 0;
#X connect 8 0 2 0;
#X connect 8 0 3 0;
#X connect 9 0 11 1;
#X connect 10 0 11 0;
#X connect 11 0 13 0;
#X connect 11 0 29 0;
#X connect 13 0 16 0;
#X connect 14 0 1 0;
#X connect 15 0 14 0;
#X connect 16 0 17 0;
#X connect 29 0 28 0;
#X connect 30 0 8 0;
#X restore 171 339 pd distance_measurement;
#X text 112 98 gemhead for rgb;
#X text 227 85 and for depth;
#X text 72 219 rgb;
#X text 172 215 depth;
#N canvas 481 22 799 308 properties 0;
#X obj 95 235 outlet;
#X obj 3 -6 cnv 15 140 220 empty empty empty 20 12 0 14 -204800 -66577
0;
#X msg 8 178 led \$1;
#X obj 8 59 vradio 15 1 0 6 empty empty empty 0 -8 0 10 -262144 -1
-1 0;
#X floatatom 8 155 5 0 0 0 - - -;
#X msg 85 178 angle \$1;
#X obj 85 23 vsl 15 128 -30 30 0 0 empty empty empty 0 -9 0 10 -262144
-1 -1 0 1;
#X floatatom 85 159 5 0 0 0 - - -;
#X msg 85 -2 0;
#X text 24 73 GREEN;
#X text 25 57 OFF;
#X text 24 89 RED;
#X text 24 104 YELLOW;
#X text 24 119 BLINK_GR;
#X text 24 133 BLINK_R_Y;
#N canvas 759 96 371 244 video_modes 0;
#X msg 118 164 video_mode \$1;
#X obj 118 33 vradio 15 1 0 7 empty empty empty 0 -8 0 10 -262144 -1
-1 0;
#X floatatom 118 143 5 0 0 0 - - -;
#X msg 22 164 depth_mode \$1;
#X obj 22 76 vradio 15 1 0 4 empty empty empty 0 -8 0 10 -262144 -1
-1 0;
#X floatatom 22 146 5 0 0 0 - - -;
#X text 4 2 LIBFREENECT MODES:;
#X text 139 62 IR MODE;
#X text 42 78 use this;
#X text 139 33 RGB (use this);
#X obj 48 219 outlet;
#X text 161 3 this is just for experimenting...;
#X connect 0 0 10 0;
#X connect 1 0 2 0;
#X connect 2 0 0 0;
#X connect 3 0 10 0;
#X connect 4 0 5 0;
#X connect 5 0 3 0;
#X restore 323 220 pd video_modes;
#X obj 149 84 cnv 15 320 120 empty empty empty 20 12 0 14 -4034 -66577
0;
#X obj 160 121 vradio 15 1 0 2 empty empty empty 0 -8 0 10 -262144
-1 -1 0;
#X floatatom 160 156 5 0 0 0 - - -;
#X obj 225 122 vradio 15 1 0 2 empty empty empty 0 -8 0 10 -262144
-1 -1 0;
#X floatatom 225 157 5 0 0 0 - - -;
#X msg 287 179 audio \$1;
#X obj 287 123 vradio 15 1 0 2 empty empty empty 0 -8 0 10 -262144
-1 -1 0;
#X floatatom 287 158 5 0 0 0 - - -;
#X msg 160 177 rgb \$1;
#X msg 225 178 depth \$1;
#X text 152 84 activate/deactivate streams;
#X text 306 120 OFF;
#X text 306 134 ON;
#X text 154 98 save cpu power by just activating necessary streams!
;
#X obj 477 85 cnv 15 315 120 empty empty empty 20 12 0 14 -232576 -66577
0;
#X obj 480 108 vradio 15 1 0 3 empty empty empty 0 -8 0 10 -262144
-1 -1 0;
#X floatatom 480 160 5 0 0 0 - - -;
#X msg 480 179 depth_output \$1;
#X text 500 106 Color -> best for visual representation;
#X text 501 122 Gray -> easy to handle;
#X text 502 137 Raw -> 11 bit output;
#X text 628 137 r-> 3 bits \, g -> 8bits;
#X text 630 151 b = 0 \, a = 0;
#X text 631 169 ->for distance_measurement;
#X text 303 -23 properties for pix_freenect;
#X text 498 62 DEPTH OUTPUT;
#X text 171 63 STREAMS;
#X text 26 -25 LED \, ANGLE;
#X connect 2 0 0 0;
#X connect 3 0 4 0;
#X connect 4 0 2 0;
#X connect 5 0 0 0;
#X connect 6 0 7 0;
#X connect 7 0 5 0;
#X connect 8 0 6 0;
#X connect 15 0 0 0;
#X connect 17 0 18 0;
#X connect 18 0 24 0;
#X connect 19 0 20 0;
#X connect 20 0 25 0;
#X connect 21 0 0 0;
#X connect 22 0 23 0;
#X connect 23 0 21 0;
#X connect 24 0 0 0;
#X connect 25 0 0 0;
#X connect 31 0 32 0;
#X connect 32 0 33 0;
#X connect 33 0 0 0;
#X restore 31 405 pd properties;
#X text 382 328 under osx;
#X msg 101 76 bang;
#N canvas 1 95 529 247 audio 0;
#X obj 58 -8 list length;
#X obj 58 12 print rcvd_samples;
#X obj 58 -60 inlet;
#X obj 108 -60 inlet;
#X obj 158 -60 inlet;
#X obj 208 -60 inlet;
#X text 403 -99 to be implemented:;
#X text 32 99 1 on the left side \, 3 on the right side under the grill
;
#X text 29 85 microphones are facing downwards;
#X text 404 -83 resampling in pd;
#X text 254 -20 1: left side mic;
#X text 256 -4 2: right side 1st;
#X text 264 26 4: right side 3rd (right outside);
#X text 259 11 3: right side 2nd;
#X text 49 -105 bang to first inlet outputs a list of samples;
#X text 49 -90 received since last |bang (;
#X text 256 -60 list (float) (float) (float) .......;
#X text 47 114 kinect is running at about 16kHz samplerate;
#X connect 0 0 1 0;
#X connect 2 0 0 0;
#X restore 157 181 pd audio;
#X text 140 73 audio output;
#N canvas 176 428 455 231 acceleration 0;
#X obj 71 34 inlet;
#X obj 71 56 route accel tilt_angle;
#X floatatom 135 87 5 0 0 0 - - -;
#X obj 71 131 unpack 0 0 0;
#X floatatom 51 154 8 0 0 0 - - -;
#X floatatom 105 154 8 0 0 0 - - -;
#X floatatom 160 154 8 0 0 0 - - -;
#X text 68 3 accel message to first inlet outputs accelerator data
at last outlet;
#X text 218 152 accelerometer data for X \, Y \, Z -axis;
#X text 172 87 Raw tilt motor angle encoder information;
#X obj 17 183 expr sqrt($f1*$f1+$f2*$f2+$f3*$f3);
#X floatatom 17 203 5 0 0 0 - - -;
#X text 53 202 gravity acceleration should be 9.81;
#X connect 0 0 1 0;
#X connect 1 0 3 0;
#X connect 1 0 10 0;
#X connect 1 1 2 0;
#X connect 3 0 4 0;
#X connect 3 1 5 0;
#X connect 3 2 6 0;
#X connect 10 0 11 0;
#X restore 230 179 pd acceleration;
#X text -34 360 sometimes you have to trigger the accel \, led or angle
to get video stream started -> i'll work on this;
#X text 383 312 audio: currently not supported;
#X text -26 1 pix_freenect 0.04 experimental!!;
#X text 347 93 1st argument: Kinect id or serial eg. A00362807917045A
;
#N canvas 0 22 364 224 init_trick 0;
#X obj 131 39 route 1;
#X obj 131 9 route gem_state;
#X obj 131 69 delay 500;
#X msg 131 103 accel;
#X obj 91 133 outlet;
#X obj 91 -15 inlet;
#X text 22 179 trigger the accelerometer output to start streaming
;
#X text 24 162 a little trick to start the streams;
#X connect 0 0 2 0;
#X connect 1 0 0 0;
#X connect 2 0 3 0;
#X connect 3 0 4 0;
#X connect 5 0 1 0;
#X connect 5 0 4 0;
#X restore 113 137 pd init_trick;
#X obj 448 75 # pix_freenect A00362807917045A 1 1 0;
#X obj 123 448 # pix_freenect 1 1 1 0;
#X obj 113 158 pix_freenect 0 1 1 0;
#N canvas 0 22 310 187 transp 0;
#X obj 27 51 alpha;
#X obj 27 93 pix_alpha;
#X floatatom 39 72 5 0 0 0 - - -;
#X obj 71 45 tgl 15 0 empty empty empty 17 7 0 10 -262144 -1 -1 1 1
;
#X obj 27 22 inlet;
#X obj 27 122 outlet;
#X msg 172 84 0 0 0;
#X obj 172 115 outlet;
#X text 172 64 overlay both pictures;
#X text 78 72 set rgb alpha;
#X connect 0 0 1 0;
#X connect 1 0 5 0;
#X connect 2 0 1 2;
#X connect 2 0 1 1;
#X connect 3 0 0 0;
#X connect 4 0 0 0;
#X connect 6 0 7 0;
#X restore 30 239 pd transp;
#X obj 30 285 translateXYZ -2.5 2 0;
#X obj 171 258 translateXYZ 2.5 2 0;
#X obj 123 509 translateXYZ -2.5 -2 0;
#X connect 0 0 51 0;
#X connect 2 0 1 0;
#X connect 3 0 1 0;
#X connect 5 0 54 0;
#X connect 7 0 56 0;
#X connect 8 0 20 0;
#X connect 9 0 57 0;
#X connect 10 0 19 0;
#X connect 11 0 54 1;
#X connect 12 0 58 0;
#X connect 13 0 53 0;
#X connect 15 0 53 1;
#X connect 16 0 18 0;
#X connect 18 0 17 0;
#X connect 19 0 36 0;
#X connect 33 0 54 0;
#X connect 34 0 35 0;
#X connect 35 0 33 0;
#X connect 41 0 53 0;
#X connect 43 0 54 0;
#X connect 51 0 54 0;
#X connect 53 0 12 0;
#X connect 53 1 16 0;
#X connect 54 0 55 0;
#X connect 54 1 9 0;
#X connect 54 2 44 0;
#X connect 54 3 44 1;
#X connect 54 4 44 2;
#X connect 54 5 44 3;
#X connect 54 6 46 0;
#X connect 55 0 7 0;
#X connect 55 1 56 0;
#X connect 55 1 57 0;
#X connect 56 0 8 0;
#X connect 57 0 10 0;
#X connect 58 0 14 0;
